<?xml version="1.0" standalone="no"?>
<!DOCTYPE svg PUBLIC "-//W3C//DTD SVG 20010904//EN"
 "http://www.w3.org/TR/2001/REC-SVG-20010904/DTD/svg10.dtd">
<svg version="1.0" xmlns="http://www.w3.org/2000/svg"
 width="325.000000pt" height="325.000000pt" viewBox="0 0 325.000000 325.000000"
 preserveAspectRatio="xMidYMid meet">

<g transform="translate(0.000000,325.000000) scale(0.100000,-0.100000)"
fill="#000000" stroke="none">
<path d="M430 3243 c-193 -20 -343 -140 -406 -323 -18 -53 -19 -106 -19 -1295
0 -1148 1 -1244 17 -1296 41 -133 119 -224 243 -285 l79 -39 1285 0 1286 0 78
37 c126 61 210 158 243 283 21 76 20 2516 0 2593 -38 140 -161 264 -308 310
-48 15 -177 16 -1258 18 -663 0 -1221 -1 -1240 -3z m2466 -188 c68 -20 117
-64 153 -137 l31 -61 0 -1232 c0 -1377 5 -1287 -72 -1365 -22 -23 -63 -52 -91
-66 l-52 -24 -1227 0 c-1225 0 -1227 0 -1284 21 -71 27 -127 83 -154 155 -20
55 -20 66 -18 1288 l3 1232 30 60 c32 62 94 114 159 133 18 5 552 10 1252 10
1047 1 1227 -1 1270 -14z"/>
<path d="M499 2254 l-24 -26 0 -610 0 -610 28 -24 28 -24 1100 0 1100 0 24 24
c14 14 26 41 30 67 3 24 5 300 3 612 l-3 569 -28 24 -28 24 -1103 0 -1103 0
-24 -26z m1931 -164 c-90 -73 -423 -319 -512 -379 -132 -89 -250 -151 -288
-151 -36 0 -155 63 -290 153 -108 73 -412 296 -488 361 l-44 36 824 0 823 0
-25 -20z m-1660 -171 c52 -41 164 -126 248 -189 132 -97 151 -115 135 -123
-16 -9 -322 -238 -454 -340 l-49 -38 0 392 c0 312 3 389 13 382 6 -6 55 -43
107 -84z m1840 -300 l0 -390 -87 67 c-49 37 -104 80 -123 96 -19 15 -93 71
-165 124 -71 52 -130 99 -130 104 0 4 74 64 165 132 91 68 203 154 250 190 47
37 86 67 88 67 1 1 2 -175 2 -390z m-1100 -202 c33 -15 65 -21 120 -21 68 0
82 3 158 42 46 23 96 51 112 62 l30 21 47 -32 c49 -33 408 -301 453 -338 l25
-21 -823 0 -823 0 33 28 c41 35 265 206 332 253 26 19 71 50 100 70 l51 37 70
-40 c39 -21 90 -49 115 -61z"/>
</g>
</svg>
